Coordinates
version=1
nRows=6
nColumns=36
inDegrees=yes

Units are S.I. units (second, meters, Newtons, ...)
If the header above contains a line with 'inDegrees', this indicates whether rotational values are in degrees (yes) or radians (no).

endheader
time	pelvis_tilt	pelvis_list	pelvis_rotation	pelvis_tx	pelvis_ty	pelvis_tz	hip_flexion_r	hip_adduction_r	hip_rotation_r	knee_angle_r	knee_angle_r_beta	ankle_angle_r	subtalar_angle_r	mtp_angle_r	hip_flexion_l	hip_adduction_l	hip_rotation_l	knee_angle_l	knee_angle_l_beta	ankle_angle_l	subtalar_angle_l	mtp_angle_l	lumbar_extension	lumbar_bending	lumbar_rotation	arm_flex_r	arm_add_r	arm_rot_r	elbow_flex_r	pro_sup_r	arm_flex_l	arm_add_l	arm_rot_l	elbow_flex_l	pro_sup_l
      0.00000000	      4.59612297	     -3.11050013	    173.38740684	      0.54230576	      0.94052046	      0.75068475	     32.23135754	     -5.18124400	      0.74969388	     47.02739886	      0.82078295	     -2.84190167	    -17.26065736	     -7.82157221	     11.90912222	      5.66764860	      0.14619112	     19.09070360	      0.33319563	      7.32517282	    -12.01270222	     -7.82157221	     -7.41463939	     -3.68146936	      1.99434983	     -6.03102198	     -3.97604098	    -16.26146742	     26.57144295	     90.77695202	     16.13626493	    -12.72734287	     11.10277401	     24.05729263	     88.40847075
      0.01666670	      4.41894199	     -3.91224714	    173.84041893	      0.54083579	      0.93714104	      0.74904935	     32.68968091	     -6.04467655	      0.20741029	     44.31985712	      0.77352743	     -4.11764407	    -13.69878354	     -7.80145232	     10.46438617	      6.78093996	      1.41285629	     18.25201239	      0.31855771	      8.38398201	    -10.41490862	     -7.80145232	     -7.23049584	     -4.90170108	      2.03485192	     -6.88652209	     -3.02292046	    -16.15476841	     25.29864856	     91.14627411	     17.25279509	    -12.91430052	      9.97901940	     23.59454400	     89.32329455
      0.03333330	      5.01997589	     -4.09946566	    173.94114590	      0.54014958	      0.93373995	      0.74830496	     33.21991474	     -6.07737872	     -0.31760267	     40.43274236	      0.70568448	     -5.79142929	    -12.57801594	     -7.70833580	      9.50608169	      7.03283565	      1.47234258	     17.21033607	      0.30037703	      7.62213239	    -10.92347532	     -7.70833580	     -6.51069818	     -4.97714902	      1.38654461	     -7.30117560	     -2.25677423	    -16.93999728	     24.42458159	     91.95484910	     17.20000283	    -13.08080562	      8.32383450	     23.94927488	     92.08672101
      0.05000000	      5.70595309	     -4.29439586	    173.93050285	      0.54100401	      0.93058431	      0.74732079	     33.39076189	     -5.99972924	     -0.29554744	     35.68248812	      0.62277690	     -6.44966465	    -10.81508025	     -7.70626080	      9.12391732	      7.17298284	      1.57488788	     17.06328804	      0.29781056	      7.90782390	    -10.95216544	     -7.70626080	     -5.74655747	     -5.06064628	      0.76419472	     -7.45913341	     -1.79258638	    -16.38055761	     23.06301620	     91.72756651	     17.35598521	    -13.35795872	      8.30788329	     24.82972745	     92.16883722
      0.06666670	      6.63188095	     -4.27427239	    174.04611039	      0.54339729	      0.92876653	      0.74635734	     33.66247331	     -5.77342507	     -0.29975630	     30.90446314	      0.53938464	     -7.39661832	     -8.88051383	     -7.70037045	      9.20698185	      7.01148186	      1.85089969	     17.48444876	      0.30516120	      8.77815272	    -10.99454658	     -7.70037045	     -4.73651876	     -4.80931830	      0.29453571	     -7.79013454	     -1.48277768	    -16.31182309	     22.24697339	     91.58694598	     17.60919588	    -13.43580730	      8.35839507	     25.38533035	     92.23259220
      0.08333330	      7.35719236	     -4.34604300	    174.12136358	      0.54577752	      0.92816953	      0.74448927	     33.72351350	     -5.55764493	      0.08198705	     26.33719899	      0.45967084	     -8.41893583	     -6.80483333	     -7.69594408	      9.18114861	      6.88850051	      2.04810987	     17.91879283	      0.31274193	      9.83712540	    -11.11039347	     -7.69594408	     -3.87550253	     -4.75875936	     -0.08605503	     -7.98432253	     -1.19688742	    -16.22520331	     21.39216000	     91.45928080	     17.81981375	    -13.66078857	      8.35240840	     25.80041248	     92.29301366
